<svg width="662" height="662" viewBox="0 0 662 662" fill="none" xmlns="http://www.w3.org/2000/svg">
<path d="M151.169 155.632L122.368 121.331L91.1336 229.221L93.8747 229.221L151.169 155.632Z" fill="#0046A8"/>
<path d="M648.508 443.754L569.159 306.312L489.807 443.754" stroke="#0046A8" stroke-width="5" stroke-linejoin="bevel"/>
<path d="M171.844 367.418L92.4949 229.977L13.1427 367.418" stroke="#0046A8" stroke-width="5" stroke-linejoin="bevel"/>
<path d="M539.841 215.938L498.758 233.777L567.722 305.697H570.603L539.841 215.938Z" fill="#0046A8"/>
<path d="M651.354 442.242H487.227L569.08 521.385L651.354 442.242Z" fill="#0064DF"/>
<path d="M569.055 442.375V521.31L487.602 442.375H569.055Z" fill="#003691"/>
<path d="M174.776 365.961H10.6484L92.5023 445.104L174.776 365.961Z" fill="#0046A8"/>
<path d="M329.008 240.445L366.528 174.508L456.274 266.718L329.008 240.445Z" fill="#0155CC"/>
<path d="M328.906 240.445L291.386 174.508L181.364 213.6L328.906 240.445Z" fill="#0155CC"/>
<path d="M328.92 240.539L328.925 500.675H250.344L328.92 240.539Z" fill="#013FA8"/>
<path d="M328.921 240.539L328.919 500.867H407.5L328.921 240.539Z" fill="#29B1FF"/>
<path d="M332.031 543.219H122.93L249.342 500.867H332.031V543.219Z" fill="#031051"/>
<path d="M328.447 543.219H534.68L408.268 500.867H328.447V543.219Z" fill="#0463E2"/>
<path d="M328.931 240.546L290.867 174.618L328.926 108.681L366.995 174.618L328.931 240.546Z" fill="#198EFF"/>
<path d="M328.916 108.742V174.663H290.953L328.916 108.742Z" fill="#31B5FC"/>
<path d="M329.002 240.547L329.002 174.626L291.039 174.626L329.002 240.547Z" fill="#001870"/>
<path d="M328.912 240.547L328.912 174.626L366.875 174.626L328.912 240.547Z" fill="#022F97"/>
<path d="M539.922 215.938L408.938 217.84L455.79 266.992L539.922 215.938Z" fill="#31B5FC"/>
<path d="M121.983 121.496L245.415 190.858L181.433 213.641L121.983 121.496Z" fill="#31B5FC"/>
<path d="M92.1021 365.961V444.896L10.6484 365.961H92.1021Z" fill="#031051"/>
<path d="M328.852 342.203L407.747 500.994L328.852 500.994L249.956 500.994L328.852 342.203Z" fill="#022F97"/>
<path d="M309.744 407.976L331.611 407.976L293.116 487.277L271.249 487.277L309.744 407.976Z" fill="#188EFF"/>
<path d="M331.889 407.976L310.022 407.976L348.517 487.277L370.384 487.277L331.889 407.976Z" fill="#0064DF"/>
<path d="M347.955 407.984L335.877 407.989L374.373 487.289L386.45 487.285L347.955 407.984Z" fill="#29B1FF"/>
<path d="M326.646 451.402L316.75 451.402L334.171 487.29L344.067 487.29L326.646 451.402Z" fill="#188EFF"/>
</svg>
